<?xml version="1.0" standalone="no"?><!DOCTYPE svg PUBLIC "-//W3C//DTD SVG 1.1//EN" "http://www.w3.org/Graphics/SVG/1.1/DTD/svg11.dtd"><svg t="1754875471372" class="icon" viewBox="0 0 1024 1024" version="1.1" xmlns="http://www.w3.org/2000/svg" p-id="9064" xmlns:xlink="http://www.w3.org/1999/xlink" width="200" height="200"><path d="M665.6 0l256 256v716.8c0 28.16-23.04 51.2-51.2 51.2H153.6c-28.16 0-51.2-23.04-51.2-51.2V51.2c0-28.16 23.04-51.2 51.2-51.2h512z m-43.52 360.96l-194.56 58.88c-23.04 7.68-43.52 30.72-43.52 53.76v204.8s-15.36-10.24-46.08-5.12c-43.52 7.68-81.92 43.52-81.92 81.92s38.4 58.88 84.48 53.76c46.08-7.68 79.36-40.96 79.36-76.8v-197.12c0-15.36 20.48-23.04 20.48-23.04l171.52-53.76s17.92-5.12 17.92 10.24v163.84s-17.92-10.24-48.64-5.12c-46.08 5.12-84.48 40.96-84.48 76.8s38.4 61.44 84.48 56.32c46.08-5.12 84.48-40.96 84.48-76.8V391.68c0-23.04-20.48-38.4-43.52-30.72z" fill="#8183F1" p-id="9065"></path><path d="M665.6 0l256 256H665.6z" fill="#B0B0FF" p-id="9066"></path></svg>