<?xml version="1.0" standalone="no"?><!DOCTYPE svg PUBLIC "-//W3C//DTD SVG 1.1//EN" "http://www.w3.org/Graphics/SVG/1.1/DTD/svg11.dtd"><svg t="1745373691046" class="icon" viewBox="0 0 1024 1024" version="1.1" xmlns="http://www.w3.org/2000/svg" p-id="4144" xmlns:xlink="http://www.w3.org/1999/xlink" width="200" height="200"><path d="M0 0h1024v1024H0z" fill="#515151" opacity=".01" p-id="4145"></path><path d="M955.328 193.984c0.448-2.88 1.728-5.44 1.728-8.384a57.6 57.6 0 0 0-57.6-57.6 56.32 56.32 0 0 0-34.24 12.48l-0.576-1.088L95.808 535.04A47.296 47.296 0 0 0 64 579.52c0 21.44 14.464 38.912 33.92 44.928l233.408 80 0.384-0.96a36.48 36.48 0 0 0 11.584 2.368 36.992 36.992 0 1 0 16.96-70.144l0.32-0.768-178.048-60.48 610.432-314.112-356.544 400.384a53.44 53.44 0 0 0-18.752 39.488c0 4.096 1.024 40.384 1.024 40.384v170.368a37.376 37.376 0 0 0 74.688 0v-150.848l265.28 91.008a44.8 44.8 0 0 0 22.016 6.4 46.08 46.08 0 0 0 46.08-46.08c0-0.192-0.256-0.256-0.256-0.448l130.56-616.64-1.728-0.384z m-196.928 578.048L512 686.72l346.688-388.48-100.288 473.856z" fill="#515151" p-id="4146"></path></svg>