<?xml version="1.0" standalone="no"?><!DOCTYPE svg PUBLIC "-//W3C//DTD SVG 1.1//EN" "http://www.w3.org/Graphics/SVG/1.1/DTD/svg11.dtd"><svg t="1744602024188" class="icon" viewBox="0 0 1024 1024" version="1.1" xmlns="http://www.w3.org/2000/svg" p-id="7077" xmlns:xlink="http://www.w3.org/1999/xlink" width="200" height="200"><path d="M510.567403 132.924553c-210.284801 0-377.387029 168.739482-377.387029 377.387029 0 210.182472 167.204557 380.661537 377.387029 380.661537s380.661537-170.479065 380.661537-380.661537C891.22894 301.664035 720.749875 132.924553 510.567403 132.924553zM740.908564 740.550415c-29.879884 29.879884-64.773858 53.415409-103.556311 69.787948-40.112721 16.986509-82.783651 25.582093-126.784851 25.582093s-86.67213-8.595583-126.784851-25.582093c-38.782452-16.372539-73.574098-39.908064-103.556311-69.787948-29.879884-29.879884-50.550215-64.773858-66.922754-103.556311C196.316978 596.881383 188.130709 554.312781 188.130709 510.311582s8.18627-86.67213 25.172779-126.784851c16.372539-38.782452 37.04287-73.574098 66.922754-103.556311 29.879884-29.879884 64.773858-49.936245 103.556311-66.308784 40.112721-16.986509 82.783651-25.172779 126.784851-25.172779s86.67213 8.18627 126.784851 25.172779c38.782452 16.372539 73.574098 36.4289 103.556311 66.308784 29.879884 29.879884 53.415409 64.773858 69.787948 103.556311 16.986509 40.112721 25.582093 82.783651 25.582093 126.784851s-8.595583 86.67213-25.582093 126.784851C794.323973 675.776556 770.788448 710.670531 740.908564 740.550415z" p-id="7078"></path><path d="M522.64215 517.167583l0-193.195963c-0.102328-15.246927-13.302688-27.62866-28.549615-27.62866 0 0-0.102328 0-0.102328 0-15.349256 0.102328-27.62866 12.484061-27.62866 27.833317L466.463875 528.321375c0 7.981613 3.683821 15.144599 9.311882 20.261017l91.68622 93.221145c5.423404 5.423404 12.484061 8.083941 19.544719 8.083941 7.060658 0 14.223643-2.660538 19.544719-8.083941 10.846807-10.846807 10.846807-28.344959 0-39.191766L522.64215 517.167583z" p-id="7079"></path></svg>