<?xml version="1.0" standalone="no"?><!DOCTYPE svg PUBLIC "-//W3C//DTD SVG 1.1//EN" "http://www.w3.org/Graphics/SVG/1.1/DTD/svg11.dtd"><svg t="1754356692785" class="icon" viewBox="0 0 1024 1024" version="1.1" xmlns="http://www.w3.org/2000/svg" p-id="29003" xmlns:xlink="http://www.w3.org/1999/xlink" width="200" height="200"><path d="M804.864 661.344l127.488 55.744c31.168 13.952 31.168 35.488 0 48.16l-366.112 159.68c-28.48 12.64-78.624 12.64-108.48 0l-366.112-159.68c-31.168-13.952-31.168-35.488 0-48.16l127.488-55.744 237.28 103.904c31.168 13.92 81.344 13.92 111.168 0l237.28-103.904z m3.168-204.8l124.384 54.56c31.072 13.984 31.072 35.52 0 48.224l-365.024 159.808c-31.072 13.952-81.088 13.952-110.848 0L91.552 559.296c-31.072-13.952-31.072-35.488 0-48.192l124.384-54.528 240.608 105.28c31.104 13.952 81.12 13.952 110.848 0l240.64-105.312z m-240.64-330.272l365.024 168.8c31.072 14.72 31.072 37.504 0 50.912l-365.024 168.8c-31.072 13.408-81.088 13.408-110.848 0v-0.032L91.552 345.952c-31.072-14.752-31.072-37.536 0-50.912l365.024-168.736c31.072-14.752 81.088-14.752 110.816 0z" p-id="29004"></path></svg>