<?xml version="1.0" standalone="no"?><!DOCTYPE svg PUBLIC "-//W3C//DTD SVG 1.1//EN" "http://www.w3.org/Graphics/SVG/1.1/DTD/svg11.dtd"><svg t="1741934285382" class="icon" viewBox="0 0 1024 1024" version="1.1" xmlns="http://www.w3.org/2000/svg" p-id="14511" xmlns:xlink="http://www.w3.org/1999/xlink" width="200" height="200"><path d="M160 32c-12.0064 0-24.8064 4.8-33.6 14.4-8.8064 9.6-14.4 21.6064-14.4 33.6v864c0 12.0064 4.8 24.8064 14.4 33.6 9.6 9.6 21.6064 14.4 33.6 14.4h704c12.0064 0 24.8064-4.8 33.6-14.4 9.6-9.6 14.4-21.6064 14.4-33.6v-640L640 32H160z" fill="#FF8976" p-id="14512"></path><path d="M912 304h-224c-12.0064 0-24.8064-4.8-33.6-14.4C644.8 280.7936 640 267.9936 640 256V32l272 272z" fill="#FFD0C8" p-id="14513"></path><path d="M385.6 385.6h176c70.4 0 92.8 47.2064 92.8 97.6 0 48-28.0064 96.8064-92.0064 96.8064h-116.7872v119.9872h-60.0064V385.6zM445.6064 531.2h96.7936c34.4064 0 52.8-10.4064 52.8-47.2064 0-38.4-24.8064-48-48-48h-101.6064V531.2z" fill="#FFFFFF" p-id="14514"></path></svg>