<?xml version="1.0" standalone="no"?><!DOCTYPE svg PUBLIC "-//W3C//DTD SVG 1.1//EN" "http://www.w3.org/Graphics/SVG/1.1/DTD/svg11.dtd"><svg t="1745373985823" class="icon" viewBox="0 0 1024 1024" version="1.1" xmlns="http://www.w3.org/2000/svg" p-id="7759" xmlns:xlink="http://www.w3.org/1999/xlink" width="200" height="200"><path d="M912.969143 875.008H110.738286a37.595429 37.595429 0 1 0 0 75.190857h802.596571a37.595429 37.595429 0 1 0 0-75.190857h-0.365714zM143.945143 790.308571h735.524571a65.389714 65.389714 0 0 0 52.955429-27.062857 66.706286 66.706286 0 0 0 9.508571-59.245714L867.254857 507.611429a65.462857 65.462857 0 0 0-62.683428-45.860572H667.648a34.889143 34.889143 0 0 0-2.925714-7.314286 208.237714 208.237714 0 0 1-33.353143-110.299428 161.645714 161.645714 0 1 0-239.323429 0 224.987429 224.987429 0 0 1-38.4 110.445714 31.890286 31.890286 0 0 0-2.925714 7.168H218.624a65.609143 65.609143 0 0 0-61.878857 44.324572l-74.605714 196.388571a66.56 66.56 0 0 0 8.411428 59.830857c12.141714 17.554286 32.109714 27.940571 53.394286 28.013714z m323.072-461.019428a38.326857 38.326857 0 0 0-14.189714-28.891429 87.186286 87.186286 0 1 1 118.491428-0.950857 38.838857 38.838857 0 0 0-14.994286 29.842286 310.857143 310.857143 0 0 0 28.086858 132.169143H434.029714c19.017143-41.691429 30.208-86.454857 32.914286-132.169143z m-242.102857 207.433143h573.220571l68.900572 178.322285H156.672l68.242286-178.322285z" p-id="7760"></path></svg>