<?xml version="1.0" standalone="no"?><!DOCTYPE svg PUBLIC "-//W3C//DTD SVG 1.1//EN" "http://www.w3.org/Graphics/SVG/1.1/DTD/svg11.dtd"><svg t="1752203272334" class="icon" viewBox="0 0 1024 1024" version="1.1" xmlns="http://www.w3.org/2000/svg" p-id="29523" xmlns:xlink="http://www.w3.org/1999/xlink" width="256" height="256"><path d="M794.794667 603.989333c-66.133333 0-123.989333 34.816-157.098667 87.210667L437.76 575.573333c12.970667-25.6 20.906667-54.101333 20.906667-84.906666 0-19.029333-3.498667-36.864-8.789334-54.272L657.92 316.245333c34.133333 37.376 82.517333 61.184 136.874667 61.184 102.997333 0 186.624-84.48 186.624-188.757333C981.333333 84.565333 897.706667 0 794.709333 0 691.626667 0 608.085333 84.48 608.085333 188.672c0 19.029333 3.584 37.034667 8.704 54.272L408.746667 363.093333a184.576 184.576 0 0 0-136.789334-61.184A187.733333 187.733333 0 0 0 85.333333 490.666667c0 104.277333 83.626667 188.672 186.624 188.672 42.666667 0 81.322667-14.933333 112.725334-39.168L384 641.450667 610.133333 772.266667c-0.853333 6.741333-2.048 13.397333-2.048 20.565333 0 104.021333 83.541333 188.586667 186.624 188.586667C897.706667 981.333333 981.333333 896.768 981.333333 792.746667c0-104.362667-83.626667-188.757333-186.538666-188.757334z m0-528.554666c61.781333 0 112.042667 50.688 112.042666 113.237333a112.64 112.64 0 0 1-112.042666 113.237333A112.64 112.64 0 0 1 682.666667 188.586667 112.64 112.64 0 0 1 794.794667 75.434667zM272.042667 603.989333A112.64 112.64 0 0 1 160.085333 490.666667a112.64 112.64 0 0 1 111.957334-113.237334A112.64 112.64 0 0 1 384 490.666667a112.64 112.64 0 0 1-111.957333 113.322666z m522.752 301.994667A112.64 112.64 0 0 1 682.666667 792.832c0-62.805333 50.176-113.493333 112.128-113.493333 61.781333 0 112.042667 50.688 112.042666 113.493333 0 62.293333-50.346667 113.152-112.042666 113.152z" fill="#ffffff" p-id="29524"></path></svg>