<?xml version="1.0" standalone="no"?><!DOCTYPE svg PUBLIC "-//W3C//DTD SVG 1.1//EN" "http://www.w3.org/Graphics/SVG/1.1/DTD/svg11.dtd"><svg t="1745722072878" class="icon" viewBox="0 0 1024 1024" version="1.1" xmlns="http://www.w3.org/2000/svg" p-id="7688" xmlns:xlink="http://www.w3.org/1999/xlink" width="200" height="200"><path d="M477.139 69.72C213.587 69.72 0 283.342 0 546.859s213.587 477.139 477.139 477.139c263.516 0 477.139-213.622 477.139-477.139L477.139 546.859 477.139 69.72zM874.204 620.265C839.58 807.973 674.703 950.591 477.139 950.591c-222.62 0-403.733-181.113-403.733-403.733 0-197.565 142.619-362.442 330.327-397.047l0 397.047 0 73.406 73.406 0L874.204 620.264zM533.551 39.551l0 451.447 451.447 0C984.997 241.67 782.878 39.551 533.551 39.551zM603.004 115.329c155.082 28.587 277.61 151.148 306.232 306.214L603.004 421.543 603.004 115.329z" fill="#272636" p-id="7689"></path></svg>