<?xml version="1.0" standalone="no"?><!DOCTYPE svg PUBLIC "-//W3C//DTD SVG 1.1//EN" "http://www.w3.org/Graphics/SVG/1.1/DTD/svg11.dtd"><svg t="1751536918224" class="icon" viewBox="0 0 1024 1024" version="1.1" xmlns="http://www.w3.org/2000/svg" p-id="16075" xmlns:xlink="http://www.w3.org/1999/xlink" width="256" height="256"><path d="M370.967273 807.563636l-254.836364-1.396363 103.563636-180.596364 8.145455 30.254546c5.585455 20.712727 24.436364 34.676364 44.916364 34.676363 3.956364 0 7.912727-0.465455 12.101818-1.629091 24.901818-6.516364 39.563636-32.116364 33.047273-57.018182l-36.305455-136.843636c-3.258182-11.869091-10.938182-22.109091-21.643636-28.392727-10.705455-6.283636-23.505455-7.912727-35.374546-4.654546L88.436364 498.734545c-24.901818 6.749091-39.563636 32.349091-32.814546 57.018182 6.749091 24.901818 32.116364 39.563636 57.018182 32.814546L137.309091 581.818182l-101.934546 178.036363c-16.989091 29.556364-16.756364 64.465455 0.232728 94.021819 16.989091 29.323636 47.243636 46.545455 80.756363 46.545454h254.603637c25.6 0 46.545455-20.945455 46.545454-46.545454s-20.945455-46.312727-46.545454-46.312728zM987.927273 760.087273l-124.509091-218.530909a46.568727 46.568727 0 1 0-80.989091 46.08l124.276364 219.694545H672.581818l20.712727-20.712727c18.152727-18.152727 17.92-47.709091-0.232727-65.861818-18.385455-18.152727-47.709091-17.92-65.861818 0.232727l-99.374545 100.072727a46.778182 46.778182 0 0 0 0 65.629091l99.374545 100.072727c9.076364 9.309091 20.945455 13.963636 33.047273 13.963637 11.869091 0 23.738182-4.421818 32.814545-13.498182 18.152727-18.152727 18.385455-47.476364 0.232727-65.861818l-20.712727-20.945455h234.123637c33.745455 0 64-17.454545 80.756363-46.545454 17.221818-29.323636 17.221818-64.465455 0.465455-93.789091zM615.796364 344.901818c-25.367273-2.792727-48.64 15.36-51.665455 40.96-3.025455 25.6 15.36 48.64 40.96 51.665455l139.636364 16.058182c1.861818 0.232727 3.490909 0.232727 5.352727 0.232727a46.242909 46.242909 0 0 0 46.08-41.192727l16.058182-140.8c2.792727-25.6-15.36-48.64-40.96-51.432728-25.134545-2.792727-48.64 15.36-51.432727 40.96l-3.025455 26.065455-124.276364-217.134546C575.767273 40.96 545.512727 23.272727 511.534545 23.272727s-64.232727 17.687273-80.98909 47.010909l-148.945455 259.956364c-12.8 22.341818-5.12 50.734545 17.221818 63.534545s50.734545 5.12 63.534546-17.221818l149.410909-259.956363 132.654545 231.563636-28.625454-3.258182z" fill="#515151" p-id="16076"></path></svg>