<?xml version="1.0" standalone="no"?><!DOCTYPE svg PUBLIC "-//W3C//DTD SVG 1.1//EN" "http://www.w3.org/Graphics/SVG/1.1/DTD/svg11.dtd"><svg t="1738825410169" class="icon" viewBox="0 0 1024 1024" version="1.1" xmlns="http://www.w3.org/2000/svg" p-id="50857" xmlns:xlink="http://www.w3.org/1999/xlink" width="200" height="200"><path d="M71.04 185.92m12.8 0l870.4 0q12.8 0 12.8 12.8l0 38.4q0 12.8-12.8 12.8l-870.4 0q-12.8 0-12.8-12.8l0-38.4q0-12.8 12.8-12.8Z" fill="#1A1A1A" p-id="50858"></path><path d="M71.04 473.92m12.8 0l134.4 0q12.8 0 12.8 12.8l0 38.4q0 12.8-12.8 12.8l-134.4 0q-12.8 0-12.8-12.8l0-38.4q0-12.8 12.8-12.8Z" fill="#1A1A1A" p-id="50859"></path><path d="M807.04 473.92m12.8 0l134.4 0q12.8 0 12.8 12.8l0 38.4q0 12.8-12.8 12.8l-134.4 0q-12.8 0-12.8-12.8l0-38.4q0-12.8 12.8-12.8Z" fill="#1A1A1A" p-id="50860"></path><path d="M561.6 473.92m12.8 0l134.4 0q12.8 0 12.8 12.8l0 38.4q0 12.8-12.8 12.8l-134.4 0q-12.8 0-12.8-12.8l0-38.4q0-12.8 12.8-12.8Z" fill="#1A1A1A" p-id="50861"></path><path d="M316.48 473.92m12.8 0l134.4 0q12.8 0 12.8 12.8l0 38.4q0 12.8-12.8 12.8l-134.4 0q-12.8 0-12.8-12.8l0-38.4q0-12.8 12.8-12.8Z" fill="#1A1A1A" p-id="50862"></path><path d="M71.04 761.92m12.8 0l870.4 0q12.8 0 12.8 12.8l0 38.4q0 12.8-12.8 12.8l-870.4 0q-12.8 0-12.8-12.8l0-38.4q0-12.8 12.8-12.8Z" fill="#1A1A1A" p-id="50863"></path></svg>