<?xml version="1.0" standalone="no"?><!DOCTYPE svg PUBLIC "-//W3C//DTD SVG 1.1//EN" "http://www.w3.org/Graphics/SVG/1.1/DTD/svg11.dtd"><svg t="1754894765614" class="icon" viewBox="0 0 1024 1024" version="1.1" xmlns="http://www.w3.org/2000/svg" p-id="30037" xmlns:xlink="http://www.w3.org/1999/xlink" width="200" height="200"><path d="M942.588125 215.815274l-192.25427-204.798157A38.143657 38.143657 0 0 0 722.686104 0.009216h-614.394471a40.191638 40.191638 0 0 0-38.911649 41.215629v941.047531A40.191638 40.191638 0 0 0 108.291633 1024h806.904738a40.191638 40.191638 0 0 0 38.91165-41.471627V245.255009a42.23962 42.23962 0 0 0-11.519896-29.439735z" fill="#8B72F7" p-id="30038" data-spm-anchor-id="a313x.search_index.0.i4.1e673a81om0svB" class="selected"></path><path d="M610.815111 649.731368H257.794288V374.533845h353.788816l-1.791984 275.197523z m150.782643-4.607958l-102.399079-68.351385a20.735813 20.735813 0 0 1-9.215917-16.63985V463.365046a20.735813 20.735813 0 0 1 9.215917-16.639851l102.399079-68.351384a4.607959 4.607959 0 0 1 7.167935 3.583967V640.003456a4.607959 4.607959 0 0 1-7.167935 4.351961z m0 0" fill="#FFFFFF" p-id="30039"></path></svg>